<svg width="100" height="100" viewBox="0 0 100 100" fill="none" xmlns="http://www.w3.org/2000/svg">
<path d="M79.375 20.4583C75.555 16.5997 71.0049 13.5403 65.9901 11.4585C60.9754 9.37681 55.5963 8.31442 50.1666 8.33333C27.4166 8.33333 8.87496 26.875 8.87496 49.625C8.87496 56.9167 10.7916 64 14.375 70.25L8.54163 91.6667L30.4166 85.9167C36.4583 89.2083 43.25 90.9583 50.1666 90.9583C72.9166 90.9583 91.4583 72.4167 91.4583 49.6667C91.4583 38.625 87.1666 28.25 79.375 20.4583ZM50.1666 83.9583C44 83.9583 37.9583 82.2917 32.6666 79.1667L31.4166 78.4167L18.4166 81.8333L21.875 69.1667L21.0416 67.875C17.6156 62.404 15.7964 56.0802 15.7916 49.625C15.7916 30.7083 31.2083 15.2917 50.125 15.2917C59.2916 15.2917 67.9166 18.875 74.375 25.375C77.5728 28.5582 80.107 32.3444 81.8308 36.5143C83.5545 40.6841 84.4334 45.1546 84.4166 49.6667C84.5 68.5833 69.0833 83.9583 50.1666 83.9583ZM69 58.2917C67.9583 57.7917 62.875 55.2917 61.9583 54.9167C61 54.5833 60.3333 54.4167 59.625 55.4167C58.9166 56.4583 56.9583 58.7917 56.375 59.4583C55.7916 60.1667 55.1666 60.25 54.125 59.7083C53.0833 59.2083 49.75 58.0833 45.8333 54.5833C42.75 51.8333 40.7083 48.4583 40.0833 47.4167C39.5 46.375 40 45.8333 40.5416 45.2917C41 44.8333 41.5833 44.0833 42.0833 43.5C42.5833 42.9167 42.7916 42.4583 43.125 41.7917C43.4583 41.0833 43.2916 40.5 43.0416 40C42.7916 39.5 40.7083 34.4167 39.875 32.3333C39.0416 30.3333 38.1666 30.5833 37.5416 30.5417H35.5416C34.8333 30.5417 33.75 30.7917 32.7916 31.8333C31.875 32.875 29.2083 35.375 29.2083 40.4583C29.2083 45.5417 32.9166 50.4583 33.4166 51.125C33.9166 51.8333 40.7083 62.25 51.0416 66.7083C53.5 67.7917 55.4166 68.4167 56.9166 68.875C59.375 69.6667 61.625 69.5417 63.4166 69.2917C65.4166 69 69.5416 66.7917 70.375 64.375C71.25 61.9583 71.25 59.9167 70.9583 59.4583C70.6666 59 70.0416 58.7917 69 58.2917Z" fill="white"/>
</svg>
