<svg width="50" height="50" viewBox="0 0 50 50" fill="none" xmlns="http://www.w3.org/2000/svg">
<path d="M24.9319 49.295C38.5444 49.295 49.5794 38.2599 49.5794 24.6475C49.5794 11.0351 38.5444 0 24.9319 0C11.3195 0 0.284454 11.0351 0.284454 24.6475C0.284454 38.2599 11.3195 49.295 24.9319 49.295Z" fill="#CFFF55"/>
<path d="M40.2996 37.56H37.5582V21.6429C37.5582 21.2045 37.3853 20.7846 37.0766 20.4759C36.7679 20.1672 36.3481 19.9943 35.9097 19.9943H26.5805V12.8569C26.5805 12.5606 26.5002 12.2642 26.3458 12.0111C26.1915 11.7579 25.9754 11.548 25.7099 11.406C25.4444 11.264 25.148 11.1961 24.8517 11.2146C24.5553 11.2331 24.2651 11.3257 24.0182 11.4924L13.0404 18.8089C12.812 18.9571 12.6267 19.1608 12.5032 19.4016C12.3736 19.6424 12.3057 19.9079 12.3118 20.1796V37.56H9.57049C9.42231 37.56 9.28647 37.6156 9.18151 37.7205C9.07655 37.8255 9.021 37.9613 9.021 38.1095C9.021 38.2577 9.07655 38.3935 9.18151 38.4985C9.28647 38.6034 9.42231 38.659 9.57049 38.659H40.3057C40.4539 38.659 40.5898 38.6034 40.6947 38.4985C40.7997 38.3935 40.8553 38.2577 40.8553 38.1095C40.8553 37.9613 40.7997 37.8255 40.6947 37.7205C40.5898 37.6156 40.4539 37.56 40.3057 37.56H40.2996ZM35.9097 21.0933C36.0579 21.0933 36.1937 21.1489 36.2987 21.2539C36.4036 21.3588 36.4592 21.4947 36.4592 21.6429V37.56H26.5805V21.0933H35.9097ZM13.4109 20.1796C13.4109 20.087 13.4356 20.0005 13.4726 19.9202C13.5158 19.84 13.5776 19.7721 13.6517 19.7227L24.6294 12.4062C24.7097 12.3507 24.8085 12.3198 24.9072 12.3136C25.006 12.3136 25.1048 12.3321 25.1913 12.3754C25.2777 12.4186 25.3518 12.4927 25.4012 12.5791C25.4506 12.6656 25.4815 12.7643 25.4815 12.8631V37.56H13.4047V20.1796H13.4109ZM22.1906 23.8409V26.0389C22.1906 26.1809 22.135 26.3229 22.0301 26.4279C21.9251 26.5328 21.7893 26.5884 21.6411 26.5884C21.4929 26.5884 21.3571 26.5328 21.2521 26.4279C21.1472 26.3229 21.0916 26.1871 21.0916 26.0389V23.8409C21.0916 23.6927 21.1472 23.5569 21.2521 23.4519C21.3571 23.3469 21.4929 23.2914 21.6411 23.2914C21.7893 23.2914 21.9251 23.3469 22.0301 23.4519C22.135 23.5569 22.1906 23.6927 22.1906 23.8409ZM17.8007 23.8409V26.0389C17.8007 26.1809 17.7452 26.3229 17.6402 26.4279C17.5352 26.5328 17.3994 26.5884 17.2512 26.5884C17.103 26.5884 16.9672 26.5328 16.8622 26.4279C16.7573 26.3229 16.7017 26.1871 16.7017 26.0389V23.8409C16.7017 23.6927 16.7573 23.5569 16.8622 23.4519C16.9672 23.3469 17.103 23.2914 17.2512 23.2914C17.3994 23.2914 17.5352 23.3469 17.6402 23.4519C17.7452 23.5569 17.8007 23.6927 17.8007 23.8409ZM17.8007 31.5216V33.7196C17.8007 33.8616 17.7452 34.0036 17.6402 34.1086C17.5352 34.2136 17.3994 34.2691 17.2512 34.2691C17.103 34.2691 16.9672 34.2136 16.8622 34.1086C16.7573 34.0036 16.7017 33.8678 16.7017 33.7196V31.5216C16.7017 31.3734 16.7573 31.2376 16.8622 31.1326C16.9672 31.0277 17.103 30.9721 17.2512 30.9721C17.3994 30.9721 17.5352 31.0277 17.6402 31.1326C17.7452 31.2376 17.8007 31.3734 17.8007 31.5216ZM22.1906 31.5216V33.7196C22.1906 33.8616 22.135 34.0036 22.0301 34.1086C21.9251 34.2136 21.7893 34.2691 21.6411 34.2691C21.4929 34.2691 21.3571 34.2136 21.2521 34.1086C21.1472 34.0036 21.0916 33.8678 21.0916 33.7196V31.5216C21.0916 31.3734 21.1472 31.2376 21.2521 31.1326C21.3571 31.0277 21.4929 30.9721 21.6411 30.9721C21.7893 30.9721 21.9251 31.0277 22.0301 31.1326C22.135 31.2376 22.1906 31.3734 22.1906 31.5216Z" fill="#1D1E1A"/>
</svg>
