<svg width="50" height="50" viewBox="0 0 50 50" fill="none" xmlns="http://www.w3.org/2000/svg">
<g id="Group 272">
<path id="Vector" d="M24.6474 49.295C38.2598 49.295 49.2949 38.2599 49.2949 24.6475C49.2949 11.0351 38.2598 0 24.6474 0C11.035 0 0 11.0351 0 24.6475C0 38.2599 11.035 49.295 24.6474 49.295Z" fill="#CFFF55"/>
<path id="Vector_2" d="M27.2283 26.4504C27.1789 26.401 27.1172 26.3577 27.0493 26.333C26.9813 26.3022 26.9134 26.2898 26.8394 26.2898C26.7653 26.2898 26.6974 26.3022 26.6295 26.333C26.5615 26.3577 26.4998 26.401 26.4504 26.4504L23.5485 29.3522L19.9365 25.7403L22.8385 22.8384C22.9434 22.7335 22.999 22.5976 22.999 22.4495C22.999 22.3013 22.9434 22.1654 22.8385 22.0605C22.7335 21.9555 22.5977 21.8999 22.4495 21.8999C22.3013 21.8999 22.1655 21.9555 22.0605 22.0605L19.1586 24.9624L16.2506 22.0605C16.1456 21.9555 16.0098 21.8999 15.8616 21.8999C15.7134 21.8999 15.5776 21.9555 15.4726 22.0605C15.3676 22.1654 15.3121 22.3013 15.3121 22.4495C15.3121 22.5976 15.3676 22.7335 15.4726 22.8384L16.7322 24.098L13.1449 27.6852C12.7868 28.0433 12.5028 28.4631 12.3114 28.9324C12.12 29.4016 12.0212 29.8956 12.0212 30.4019C12.0212 30.9081 12.12 31.4083 12.3114 31.8713C12.5028 32.3406 12.7868 32.7604 13.1449 33.1185L14.2687 34.2422L9.98372 38.5271C9.87876 38.6321 9.82318 38.7679 9.82318 38.9161C9.82318 39.0643 9.87876 39.2001 9.98372 39.3051C10.0887 39.41 10.2245 39.4656 10.3727 39.4656C10.5209 39.4656 10.6567 39.41 10.7617 39.3051L15.0466 35.0202L16.1703 36.1439C16.5284 36.502 16.9483 36.786 17.4175 36.9774C17.8806 37.1688 18.3807 37.2676 18.887 37.2676C19.3932 37.2676 19.8934 37.1688 20.3564 36.9774C20.8195 36.786 21.2455 36.502 21.6036 36.1439L25.1908 32.5566L26.4504 33.8162C26.5553 33.9212 26.6912 33.9767 26.8394 33.9767C26.9875 33.9767 27.1234 33.9212 27.2283 33.8162C27.3333 33.7112 27.3889 33.5754 27.3889 33.4272C27.3889 33.279 27.3333 33.1432 27.2283 33.0382L24.3264 30.1364L27.2283 27.2345C27.2777 27.1851 27.3209 27.1233 27.3456 27.0554C27.3703 26.9875 27.3889 26.9196 27.3889 26.8455C27.3889 26.7714 27.3765 26.7035 27.3456 26.6356C27.3209 26.5677 27.2777 26.5121 27.2283 26.4565V26.4504ZM20.8319 35.3659C20.3194 35.8784 19.6217 36.1686 18.8931 36.1686C18.1646 36.1686 17.4669 35.8784 16.9544 35.3659L13.929 32.3344C13.4166 31.8219 13.1264 31.1242 13.1264 30.3957C13.1264 29.6671 13.4166 28.9694 13.929 28.457L17.5163 24.8698L24.4252 31.7787L20.838 35.3721L20.8319 35.3659ZM39.3051 9.98372C39.2557 9.93432 39.194 9.8911 39.1261 9.86641C39.0581 9.83553 38.9902 9.82318 38.9161 9.82318C38.842 9.82318 38.7741 9.83553 38.7062 9.86641C38.6383 9.8911 38.5765 9.93432 38.5271 9.98372L34.2422 14.2686L33.1186 13.1449C32.7605 12.7868 32.3406 12.5028 31.8714 12.3114C31.4021 12.12 30.9082 12.0212 30.4019 12.0212C29.8956 12.0212 29.3955 12.12 28.9324 12.3114C28.4632 12.5028 28.0433 12.7868 27.6852 13.1449L24.098 16.7321L22.8385 15.4726C22.7335 15.3676 22.5977 15.3121 22.4495 15.3121C22.3013 15.3121 22.1655 15.3676 22.0605 15.4726C21.9556 15.5776 21.9 15.7134 21.9 15.8616C21.9 16.0097 21.9556 16.1456 22.0605 16.2505L33.0383 27.2283C33.1433 27.3333 33.2791 27.3888 33.4273 27.3888C33.5755 27.3888 33.7113 27.3333 33.8162 27.2283C33.9212 27.1233 33.9767 26.9875 33.9767 26.8393C33.9767 26.6911 33.9212 26.5553 33.8162 26.4504L32.5567 25.1908L36.1439 21.6036C36.502 21.2455 36.7799 20.8256 36.9774 20.3564C37.1688 19.8872 37.2676 19.3932 37.2676 18.8869C37.2676 18.3807 37.1688 17.8867 36.9774 17.4175C36.786 16.9482 36.502 16.5284 36.1439 16.1703L35.0202 15.0466L39.3051 10.7617C39.3545 10.7123 39.3977 10.6505 39.4224 10.5826C39.4471 10.5147 39.4656 10.4468 39.4656 10.3727C39.4656 10.2986 39.4533 10.2307 39.4224 10.1628C39.3977 10.0949 39.3545 10.0393 39.3051 9.98372ZM36.1748 18.8869C36.1748 19.245 36.1069 19.6031 35.9649 19.9365C35.829 20.27 35.6252 20.5725 35.3659 20.8256L31.7787 24.4129L24.8697 17.5039L28.457 13.9167C28.9695 13.4042 29.6672 13.114 30.3957 13.114C31.1243 13.114 31.822 13.4042 32.3344 13.9167L35.3598 16.9421C35.6129 17.1952 35.8167 17.4977 35.9587 17.8311C36.0945 18.1645 36.1686 18.5227 36.1686 18.8808L36.1748 18.8869Z" fill="#1D1E1A"/>
</g>
</svg>
