<svg width="50" height="50" viewBox="0 0 50 50" fill="none" xmlns="http://www.w3.org/2000/svg">
<g id="Group 273">
<path id="Vector" d="M25.0174 49.295C38.6298 49.295 49.6648 38.2599 49.6648 24.6475C49.6648 11.0351 38.6298 0 25.0174 0C11.4049 0 0.369873 11.0351 0.369873 24.6475C0.369873 38.2599 11.4049 49.295 25.0174 49.295Z" fill="#CFFF55"/>
<path id="Vector_2" d="M34.8899 29.0374C33.8958 29.0374 32.945 29.4202 32.2287 30.1117L28.3513 27.0925C28.6847 26.5121 28.8577 25.8576 28.8577 25.1908C28.8577 24.9624 28.8391 24.7339 28.7959 24.5055L31.4632 23.6226C31.9015 24.4931 32.6486 25.1661 33.5624 25.5057C34.4762 25.8453 35.4825 25.8268 36.384 25.4501C37.2854 25.0797 38.0078 24.3758 38.4153 23.4867C38.8167 22.6038 38.8722 21.5974 38.5635 20.6713C38.2548 19.7452 37.6065 18.9734 36.7544 18.5103C35.9024 18.0473 34.9022 17.9176 33.9576 18.1584C33.0129 18.3992 32.1979 18.9919 31.6731 19.8131C31.1482 20.6343 30.9507 21.6221 31.1235 22.5791L28.4501 23.4682C28.1291 22.8323 27.6413 22.2951 27.0362 21.9247C26.4311 21.548 25.7335 21.3505 25.0173 21.3505C24.6654 21.3505 24.3134 21.3999 23.9738 21.4925L22.6711 18.5597C23.4552 18.0658 24.0356 17.3064 24.3011 16.4234C24.5666 15.5405 24.5048 14.5835 24.1282 13.7377C23.7516 12.8918 23.0786 12.2126 22.2389 11.8237C21.3992 11.4347 20.4483 11.3606 19.5592 11.6199C18.6702 11.8792 17.9046 12.4473 17.3983 13.2252C16.8982 14.0032 16.6883 14.9355 16.8179 15.8492C16.9476 16.763 17.4045 17.6027 18.1021 18.2078C18.7998 18.8129 19.6951 19.1463 20.6212 19.1463C20.9731 19.1463 21.3251 19.0969 21.6647 18.9981L22.9674 21.9308C22.5352 22.2025 22.1586 22.5606 21.8684 22.9743C21.5782 23.3941 21.3683 23.8634 21.2572 24.3635C21.1522 24.8636 21.146 25.3822 21.2386 25.8823C21.3312 26.3825 21.5288 26.864 21.8067 27.2901L17.6021 31.0193C16.8612 30.3895 15.9103 30.0685 14.9409 30.1179C13.9716 30.1673 13.0516 30.5748 12.3786 31.2724C11.6995 31.9701 11.3105 32.8962 11.2858 33.8656C11.2611 34.835 11.6069 35.7796 12.249 36.5082C12.8911 37.2367 13.7863 37.6874 14.7557 37.7862C15.725 37.8788 16.6882 37.601 17.46 37.0145C18.2318 36.4217 18.7505 35.5635 18.911 34.6065C19.0715 33.6495 18.8677 32.6678 18.3306 31.8528L22.5291 28.1236C23.2576 28.7348 24.1837 29.0621 25.1284 29.0312C26.0792 29.0003 26.9807 28.6175 27.666 27.9569L31.5434 30.9761C31.1297 31.7108 30.963 32.5629 31.0804 33.3964C31.1977 34.2299 31.5867 35.0078 32.1856 35.6006C32.7845 36.1933 33.5624 36.5761 34.4021 36.681C35.2418 36.786 36.0877 36.6131 36.8162 36.1933C37.5448 35.7673 38.1128 35.1128 38.4339 34.3348C38.7549 33.5507 38.8105 32.6863 38.5882 31.8713C38.3659 31.0563 37.8843 30.334 37.2175 29.8215C36.5507 29.309 35.7296 29.0312 34.8837 29.0312L34.8899 29.0374ZM34.8899 19.1586C35.4332 19.1586 35.9642 19.3192 36.4149 19.6217C36.8656 19.9242 37.2175 20.3503 37.4275 20.8504C37.6374 21.3505 37.6868 21.9062 37.5818 22.4371C37.4769 22.9681 37.2175 23.4559 36.8285 23.8449C36.4457 24.2277 35.958 24.487 35.4208 24.5981C34.8899 24.7031 34.3403 24.6475 33.834 24.4438C33.3339 24.2338 32.9017 23.8819 32.6054 23.4312C32.3028 22.9805 32.1423 22.4495 32.1423 21.9061C32.1423 21.1776 32.4325 20.4799 32.945 19.9675C33.4574 19.455 34.1551 19.1648 34.8837 19.1648L34.8899 19.1586ZM17.8737 15.3183C17.8737 14.7749 18.0342 14.244 18.3368 13.7932C18.6393 13.3425 19.0653 12.9906 19.5654 12.7807C20.0655 12.5707 20.6151 12.5213 21.1522 12.6263C21.6832 12.7313 22.1771 12.9968 22.5599 13.3796C22.9427 13.7624 23.2083 14.2501 23.3132 14.7873C23.4182 15.3183 23.3626 15.8739 23.1589 16.3741C22.9489 16.8742 22.597 17.3064 22.1463 17.6027C21.6956 17.9053 21.1645 18.0658 20.6212 18.0658C19.8926 18.0658 19.195 17.7756 18.6826 17.2631C18.1701 16.7507 17.8799 16.053 17.8799 15.3244L17.8737 15.3183ZM15.1324 36.7243C14.5891 36.7243 14.058 36.5637 13.6073 36.2612C13.1566 35.9587 12.8046 35.5326 12.5947 35.0325C12.3848 34.5324 12.3354 33.9767 12.4404 33.4458C12.5453 32.9148 12.8109 32.427 13.1937 32.038C13.5765 31.6552 14.0642 31.3897 14.6013 31.2848C15.1323 31.1798 15.6819 31.2354 16.1881 31.4391C16.6944 31.6429 17.1205 32.001 17.4168 32.4517C17.7193 32.9024 17.8799 33.4334 17.8799 33.9767C17.8799 34.7053 17.5897 35.403 17.0772 35.9154C16.5647 36.4279 15.8671 36.7181 15.1386 36.7181L15.1324 36.7243ZM25.0111 27.9445C24.4678 27.9445 23.9368 27.784 23.486 27.4815C23.0353 27.1789 22.6834 26.7529 22.4735 26.2528C22.2635 25.7527 22.2141 25.197 22.3191 24.666C22.4241 24.135 22.6896 23.6473 23.0724 23.2583C23.4552 22.8755 23.9429 22.61 24.4801 22.505C25.0111 22.4001 25.5606 22.4557 26.0669 22.6594C26.5732 22.8632 26.9992 23.2213 27.2956 23.672C27.5981 24.1227 27.7586 24.6537 27.7586 25.197C27.7586 25.9256 27.4684 26.6232 26.9559 27.1357C26.4435 27.6482 25.7459 27.9383 25.0173 27.9383L25.0111 27.9445ZM34.8899 35.6253C34.3465 35.6253 33.8155 35.4647 33.3648 35.1622C32.9141 34.8597 32.5621 34.4336 32.3522 33.9335C32.1423 33.4334 32.0929 32.8777 32.1978 32.3467C32.3028 31.8158 32.5684 31.328 32.9512 30.939C33.334 30.5562 33.8217 30.2907 34.3588 30.1858C34.8898 30.0808 35.4394 30.1364 35.9456 30.3401C36.4519 30.5439 36.8779 30.902 37.1743 31.3527C37.4768 31.8034 37.6374 32.3344 37.6374 32.8777C37.6374 33.6063 37.3472 34.304 36.8347 34.8164C36.3222 35.3289 35.6246 35.6191 34.8961 35.6191L34.8899 35.6253Z" fill="#1D1E1A"/>
</g>
</svg>
