<svg width="51" height="50" viewBox="0 0 51 50" fill="none" xmlns="http://www.w3.org/2000/svg">
<g id="Group 271">
<path id="Vector" d="M25.6312 49.295C39.2436 49.295 50.2787 38.2599 50.2787 24.6475C50.2787 11.0351 39.2436 0 25.6312 0C12.0188 0 0.983765 11.0351 0.983765 24.6475C0.983765 38.2599 12.0188 49.295 25.6312 49.295Z" fill="#CFFF55"/>
<path id="Vector_2" d="M21.7106 10.9222H13.8693C13.3507 10.9222 12.8506 11.1259 12.4801 11.4964C12.1159 11.8607 11.9059 12.3608 11.9059 12.8856V20.7268C11.9059 21.2455 12.1097 21.7456 12.4801 22.1099C12.8444 22.4803 13.3445 22.6841 13.8693 22.6841H21.7106C22.2292 22.6841 22.7293 22.4803 23.0936 22.1099C23.4641 21.7456 23.6678 21.2455 23.6678 20.7268V12.8856C23.6678 12.367 23.4641 11.8668 23.0936 11.4964C22.7293 11.1321 22.2292 10.9222 21.7106 10.9222ZM22.3651 20.7207C22.3651 20.8936 22.2972 21.0603 22.1737 21.1837C22.0502 21.3072 21.8835 21.3751 21.7106 21.3751H13.8693C13.6965 21.3751 13.5298 21.3072 13.4063 21.1837C13.2828 21.0603 13.2149 20.8936 13.2149 20.7207V12.8794C13.2149 12.7065 13.2828 12.5398 13.4063 12.4163C13.5298 12.2929 13.6965 12.2249 13.8693 12.2249H21.7106C21.8835 12.2249 22.0502 12.2929 22.1737 12.4163C22.2972 12.5398 22.3651 12.7065 22.3651 12.8794V20.7207ZM21.7106 26.5985H13.8693C13.3507 26.5985 12.8506 26.8023 12.4801 27.1727C12.1159 27.537 11.9059 28.0371 11.9059 28.5619V36.4032C11.9059 36.9218 12.1097 37.4219 12.4801 37.7862C12.8444 38.1566 13.3445 38.3604 13.8693 38.3604H21.7106C22.2292 38.3604 22.7293 38.1566 23.0936 37.7862C23.4641 37.4219 23.6678 36.9218 23.6678 36.4032V28.5619C23.6678 28.0433 23.4641 27.5432 23.0936 27.1727C22.7293 26.8084 22.2292 26.5985 21.7106 26.5985ZM22.3651 36.397C22.3651 36.5699 22.2972 36.7366 22.1737 36.8601C22.0502 36.9835 21.8835 37.0515 21.7106 37.0515H13.8693C13.6965 37.0515 13.5298 36.9835 13.4063 36.8601C13.2828 36.7366 13.2149 36.5699 13.2149 36.397V28.5557C13.2149 28.3829 13.2828 28.2162 13.4063 28.0927C13.5298 27.9692 13.6965 27.9013 13.8693 27.9013H21.7106C21.8835 27.9013 22.0502 27.9692 22.1737 28.0927C22.2972 28.2162 22.3651 28.3829 22.3651 28.5557V36.397ZM37.3931 10.916H29.5519C29.0332 10.916 28.5331 11.1198 28.1627 11.4902C27.7984 11.8545 27.5885 12.3546 27.5885 12.8794V20.7207C27.5885 21.2393 27.7922 21.7394 28.1627 22.1037C28.5269 22.4741 29.0271 22.6779 29.5519 22.6779H37.3931C37.9117 22.6779 38.4119 22.4741 38.7761 22.1037C39.1466 21.7394 39.3503 21.2393 39.3503 20.7207V12.8794C39.3503 12.3608 39.1466 11.8607 38.7761 11.4902C38.4119 11.1259 37.9117 10.916 37.3931 10.916ZM38.0476 20.7145C38.0476 20.8874 37.9796 21.0541 37.8562 21.1776C37.7327 21.301 37.566 21.369 37.3931 21.369H29.5519C29.379 21.369 29.2123 21.301 29.0888 21.1776C28.9653 21.0541 28.8974 20.8874 28.8974 20.7145V12.8732C28.8974 12.7004 28.9653 12.5336 29.0888 12.4102C29.2123 12.2867 29.379 12.2188 29.5519 12.2188H37.3931C37.566 12.2188 37.7327 12.2867 37.8562 12.4102C37.9796 12.5336 38.0476 12.7004 38.0476 12.8732V20.7145ZM28.5269 38.1196L27.8292 37.4219C27.6996 37.2923 27.6996 37.0762 27.8292 36.9403L37.9364 26.8331C38.0661 26.7035 38.2822 26.7035 38.418 26.8331L39.1157 27.5308C39.2454 27.6605 39.2454 27.8766 39.1157 28.0124L29.0085 38.1196C28.8789 38.2493 28.6628 38.2493 28.5269 38.1196ZM27.8292 27.537L28.5269 26.8393C28.6566 26.7096 28.8727 26.7096 29.0085 26.8393L39.1157 36.9465C39.2454 37.0762 39.2454 37.2923 39.1157 37.4281L38.418 38.1258C38.2884 38.2554 38.0723 38.2554 37.9364 38.1258L27.8292 28.0186C27.6996 27.8889 27.6996 27.6728 27.8292 27.537Z" fill="#1D1E1A"/>
</g>
</svg>
