<svg width="113" height="127" viewBox="0 0 113 127" fill="none" xmlns="http://www.w3.org/2000/svg">
<g id="Capa 3">
<g id="Group">
<path id="Vector" d="M61.9817 22.52L60.5517 5.19C60.4017 3.39 58.8917 2 57.0817 2H55.9917C54.1817 2 52.6717 3.39 52.5217 5.19L51.0917 22.52C50.9217 24.55 52.5217 26.28 54.5617 26.28H58.5117C60.5417 26.28 62.1417 24.54 61.9817 22.52Z" fill="#F0F0F0" stroke="black" stroke-width="3.25" stroke-miterlimit="10"/>
<g id="Vector_2">
<path d="M106.462 66.09C106.462 49.99 99.7117 33.64 86.5417 22.91C83.4217 20.36 79.9817 18.24 76.3417 16.56C76.0417 16.42 75.8217 16.14 75.7717 15.81C75.1017 11.44 71.9417 7.84 67.6817 6.65C65.6517 6.08 63.6917 5.69 61.8017 5.44C61.1617 5.35 60.6117 5.88 60.6717 6.52L62.2117 25.2C62.2617 25.78 61.8017 26.29 61.2117 26.29H51.8917C51.3017 26.29 50.8417 25.79 50.8917 25.2L52.4317 6.44C52.4817 5.81 51.9417 5.28 51.3117 5.36C49.1117 5.62 47.1417 6.03 45.4417 6.5C41.2117 7.65 38.0117 11.12 37.2417 15.44L37.1717 15.85C37.1117 16.17 36.9017 16.44 36.6117 16.57C23.6817 22.68 14.2817 34.27 9.8317 47.04C7.8017 52.86 6.7517 58.96 6.6417 65.08C6.6317 65.64 7.0917 66.1 7.6517 66.1H106.472" fill="#CEFC6D"/>
<path d="M106.462 66.09C106.462 49.99 99.7117 33.64 86.5417 22.91C83.4217 20.36 79.9817 18.24 76.3417 16.56C76.0417 16.42 75.8217 16.14 75.7717 15.81C75.1017 11.44 71.9417 7.84 67.6817 6.65C65.6517 6.08 63.6917 5.69 61.8017 5.44C61.1617 5.35 60.6117 5.88 60.6717 6.52L62.2117 25.2C62.2617 25.78 61.8017 26.29 61.2117 26.29H51.8917C51.3017 26.29 50.8417 25.79 50.8917 25.2L52.4317 6.44C52.4817 5.81 51.9417 5.28 51.3117 5.36C49.1117 5.62 47.1417 6.03 45.4417 6.5C41.2117 7.65 38.0117 11.12 37.2417 15.44L37.1717 15.85C37.1117 16.17 36.9017 16.44 36.6117 16.57C23.6817 22.68 14.2817 34.27 9.8317 47.04C7.8017 52.86 6.7517 58.96 6.6417 65.08C6.6317 65.64 7.0917 66.1 7.6517 66.1H106.472" stroke="black" stroke-width="3.13" stroke-miterlimit="10"/>
</g>
<path id="Vector_3" d="M75.8517 16.34L78.5717 33.92" stroke="black" stroke-width="3.13" stroke-miterlimit="10" stroke-linecap="round"/>
<path id="Vector_4" d="M33.9417 33.92L37.3417 14.82" stroke="black" stroke-width="3.13" stroke-miterlimit="10" stroke-linecap="round"/>
<path id="Vector_5" d="M107.022 66.09H6.13171C6.13171 66.09 3.33171 66.2 2.15171 69.61C1.53171 71.39 2.89171 73.25 4.78171 73.25H108.312C110.192 73.25 111.552 71.4 110.942 69.62C109.782 66.19 107.012 66.08 107.012 66.08L107.022 66.09Z" fill="#CEFC6D" stroke="black" stroke-width="3.13" stroke-miterlimit="10"/>
<path id="Vector_6" d="M100.562 73.26H80.6817C79.8917 73.26 79.2317 73.87 79.1617 74.66C78.1217 86.01 68.5717 94.9 56.9517 94.9C45.3317 94.9 35.7817 86.01 34.7417 74.66C34.6717 73.87 34.0117 73.26 33.2217 73.26H13.3417C12.4717 73.26 11.7717 73.98 11.8117 74.85V74.88C11.8417 75.6 11.3717 76.24 10.6717 76.42L4.40172 78.06C3.58172 78.27 3.09172 79.11 3.30172 79.93L6.58172 92.47C6.79172 93.29 7.63172 93.78 8.45172 93.57L14.5017 91.99C15.2017 91.81 15.9417 92.14 16.2617 92.79C17.9117 96.21 19.9917 99.4 22.4117 102.28C22.8717 102.83 22.8817 103.62 22.4417 104.19L18.6917 109.05C18.1717 109.72 18.2917 110.68 18.9717 111.2L29.2317 119.12C29.9017 119.64 30.8617 119.52 31.3817 118.84L35.0317 114.11C35.4717 113.54 36.2617 113.35 36.9117 113.67C40.3017 115.35 43.9317 116.61 47.7417 117.4C48.4517 117.54 48.9417 118.18 48.9417 118.9V124.84C48.9417 125.69 49.6217 126.37 50.4717 126.37H63.4317C64.2817 126.37 64.9617 125.69 64.9617 124.84V118.9C64.9617 118.17 65.4817 117.55 66.2017 117.4C69.7617 116.66 73.1617 115.5 76.3517 113.98C77.0117 113.66 77.8117 113.85 78.2517 114.43L81.8417 119.22C82.3517 119.9 83.3117 120.03 83.9817 119.52L94.3517 111.75C95.0317 111.24 95.1617 110.28 94.6617 109.61L90.9917 104.71C90.5517 104.13 90.5917 103.32 91.0817 102.77C92.7317 100.87 94.2117 98.83 95.5217 96.67C95.9017 96.04 96.6617 95.77 97.3517 96.02L103.192 98.17C103.992 98.46 104.862 98.06 105.162 97.26L109.632 85.1C109.922 84.31 109.522 83.43 108.722 83.13L102.702 80.91C102.032 80.66 101.612 79.99 101.712 79.28C101.912 77.83 102.042 76.35 102.102 74.87C102.132 74 101.442 73.27 100.572 73.27L100.562 73.26Z" fill="#CFCECE"/>
</g>
</g>
</svg>
