<svg width="88" height="124" viewBox="0 0 88 124" fill="none" xmlns="http://www.w3.org/2000/svg">
<g id="Group">
<path id="Vector" d="M8.21 2H79.95C83.38 2 86.16 4.78 86.16 8.21V115.4C86.16 118.83 83.37 121.61 79.95 121.61H8.21C4.78 121.61 2 118.82 2 115.4V8.21C2 4.78 4.78 2 8.21 2Z" fill="#CEFC6D" stroke="black" stroke-width="3.02" stroke-miterlimit="10"/>
<path id="Vector_2" d="M74.65 16.4H13.51C12.4165 16.4 11.53 17.2865 11.53 18.38V28.89C11.53 29.9835 12.4165 30.87 13.51 30.87H74.65C75.7435 30.87 76.63 29.9835 76.63 28.89V18.38C76.63 17.2865 75.7435 16.4 74.65 16.4Z" fill="#CFCECE" stroke="black" stroke-width="3.25" stroke-miterlimit="10"/>
<path id="Vector_3" d="M74.88 45.22H13.29C12.32 45.22 11.53 44.22 11.53 42.99V40.82C11.53 39.59 12.32 38.59 13.29 38.59H74.88C75.85 38.59 76.64 39.59 76.64 40.82V42.99C76.64 44.22 75.85 45.22 74.88 45.22Z" fill="#CFCECE" stroke="black" stroke-width="3.25" stroke-miterlimit="10"/>
<path id="Vector_4" d="M28.95 54.58H19.27C18.6128 54.58 18.08 55.1128 18.08 55.77V65.46C18.08 66.1172 18.6128 66.65 19.27 66.65H28.95C29.6072 66.65 30.14 66.1172 30.14 65.46V55.77C30.14 55.1128 29.6072 54.58 28.95 54.58Z" fill="#CFCECE"/>
<path id="Vector_5" d="M48.93 54.58H39.24C38.5828 54.58 38.05 55.1128 38.05 55.77V65.46C38.05 66.1172 38.5828 66.65 39.24 66.65H48.93C49.5872 66.65 50.12 66.1172 50.12 65.46V55.77C50.12 55.1128 49.5872 54.58 48.93 54.58Z" fill="#CFCECE"/>
<path id="Vector_6" d="M68.9 54.58H59.21C58.5528 54.58 58.02 55.1128 58.02 55.77V65.46C58.02 66.1172 58.5528 66.65 59.21 66.65H68.9C69.5572 66.65 70.09 66.1172 70.09 65.46V55.77C70.09 55.1128 69.5572 54.58 68.9 54.58Z" fill="#CFCECE"/>
<path id="Vector_7" d="M28.95 74.87H19.27C18.6128 74.87 18.08 75.4028 18.08 76.06V85.75C18.08 86.4072 18.6128 86.94 19.27 86.94H28.95C29.6072 86.94 30.14 86.4072 30.14 85.75V76.06C30.14 75.4028 29.6072 74.87 28.95 74.87Z" fill="#CFCECE"/>
<path id="Vector_8" d="M48.93 74.87H39.24C38.5828 74.87 38.05 75.4028 38.05 76.06V85.75C38.05 86.4072 38.5828 86.94 39.24 86.94H48.93C49.5872 86.94 50.12 86.4072 50.12 85.75V76.06C50.12 75.4028 49.5872 74.87 48.93 74.87Z" fill="#CFCECE"/>
<path id="Vector_9" d="M68.9 74.87H59.21C58.5528 74.87 58.02 75.4028 58.02 76.06V85.75C58.02 86.4072 58.5528 86.94 59.21 86.94H68.9C69.5572 86.94 70.09 86.4072 70.09 85.75V76.06C70.09 75.4028 69.5572 74.87 68.9 74.87Z" fill="#CFCECE"/>
<path id="Vector_10" d="M28.95 95.16H19.27C18.6128 95.16 18.08 95.6928 18.08 96.35V106.04C18.08 106.697 18.6128 107.23 19.27 107.23H28.95C29.6072 107.23 30.14 106.697 30.14 106.04V96.35C30.14 95.6928 29.6072 95.16 28.95 95.16Z" fill="#CFCECE"/>
<path id="Vector_11" d="M48.93 95.16H39.24C38.5828 95.16 38.05 95.6928 38.05 96.35V106.04C38.05 106.697 38.5828 107.23 39.24 107.23H48.93C49.5872 107.23 50.12 106.697 50.12 106.04V96.35C50.12 95.6928 49.5872 95.16 48.93 95.16Z" fill="#CFCECE"/>
<path id="Vector_12" d="M68.9 95.16H59.21C58.5528 95.16 58.02 95.6928 58.02 96.35V106.04C58.02 106.697 58.5528 107.23 59.21 107.23H68.9C69.5572 107.23 70.09 106.697 70.09 106.04V96.35C70.09 95.6928 69.5572 95.16 68.9 95.16Z" fill="#CFCECE"/>
</g>
</svg>
