<svg width="32" height="32" viewBox="0 0 33 33" fill="none" xmlns="http://www.w3.org/2000/svg">
<path d="M11.3179 16.854C11.3179 13.9086 13.705 11.5202 16.6505 11.5202C19.5961 11.5202 21.9845 13.9086 21.9845 16.854C21.9845 19.7994 19.5961 22.1878 16.6505 22.1878C13.705 22.1878 11.3179 19.7994 11.3179 16.854ZM8.43441 16.854C8.43441 21.3916 12.1128 25.0698 16.6505 25.0698C21.1883 25.0698 24.8667 21.3916 24.8667 16.854C24.8667 12.3164 21.1883 8.6382 16.6505 8.6382C12.1128 8.6382 8.43441 12.3164 8.43441 16.854ZM23.2719 8.31244C23.2717 8.69218 23.3842 9.06343 23.595 9.37926C23.8059 9.69509 24.1057 9.9413 24.4564 10.0868C24.8072 10.2322 25.1933 10.2704 25.5658 10.1965C25.9383 10.1225 26.2805 9.9398 26.5491 9.67139C26.8177 9.40298 27.0007 9.06094 27.075 8.68853C27.1492 8.31612 27.1113 7.93005 26.9662 7.57916C26.821 7.22827 26.575 6.92831 26.2593 6.71721C25.9436 6.50611 25.5725 6.39336 25.1927 6.3932H25.1919C24.6829 6.39344 24.1948 6.5957 23.8348 6.95555C23.4748 7.3154 23.2723 7.80343 23.2719 8.31244V8.31244ZM10.1863 29.8776C8.62629 29.8066 7.77838 29.5467 7.2149 29.3272C6.46786 29.0364 5.93485 28.69 5.37444 28.1304C4.81404 27.5708 4.46714 27.0383 4.1776 26.2913C3.95794 25.7281 3.69809 24.88 3.62717 23.3201C3.5496 21.6335 3.53411 21.1269 3.53411 16.8541C3.53411 12.5814 3.55088 12.0761 3.62717 10.3882C3.69822 8.82828 3.95999 7.98181 4.1776 7.41695C4.46842 6.66994 4.81481 6.13695 5.37444 5.57656C5.93408 5.01618 6.46658 4.6693 7.2149 4.37976C7.77812 4.16012 8.62629 3.90028 10.1863 3.82936C11.8729 3.7518 12.3795 3.73631 16.6505 3.73631C20.9216 3.73631 21.4287 3.75308 23.1167 3.82936C24.6767 3.9004 25.5232 4.16216 26.0881 4.37976C26.8351 4.6693 27.3682 5.01695 27.9286 5.57656C28.489 6.13618 28.8346 6.66994 29.1254 7.41695C29.3451 7.98015 29.6049 8.82828 29.6758 10.3882C29.7534 12.0761 29.7689 12.5814 29.7689 16.8541C29.7689 21.1269 29.7534 21.6321 29.6758 23.3201C29.6048 24.88 29.3437 25.7279 29.1254 26.2913C28.8346 27.0383 28.4882 27.5713 27.9286 28.1304C27.3689 28.6895 26.8351 29.0364 26.0881 29.3272C25.5249 29.5469 24.6767 29.8067 23.1167 29.8776C21.4301 29.9552 20.9235 29.9707 16.6505 29.9707C12.3776 29.9707 11.8724 29.9552 10.1863 29.8776V29.8776ZM10.0538 0.9509C8.35044 1.02847 7.18648 1.29855 6.17 1.69407C5.11728 2.10252 4.22611 2.65048 3.33558 3.53957C2.44505 4.42866 1.89846 5.3212 1.49 6.37388C1.09446 7.39096 0.824373 8.55423 0.746802 10.2575C0.667951 11.9635 0.649902 12.5089 0.649902 16.854C0.649902 21.1991 0.667951 21.7445 0.746802 23.4505C0.824373 25.1539 1.09446 26.317 1.49 27.3341C1.89846 28.3862 2.44517 29.2797 3.33558 30.1684C4.22598 31.0571 5.11728 31.6043 6.17 32.0139C7.1884 32.4095 8.35044 32.6795 10.0538 32.7571C11.7607 32.8347 12.3053 32.854 16.6505 32.854C20.9958 32.854 21.5412 32.836 23.2473 32.7571C24.9508 32.6795 26.114 32.4095 27.1311 32.0139C28.1832 31.6043 29.075 31.0575 29.9655 30.1684C30.856 29.2793 31.4015 28.3862 31.8111 27.3341C32.2066 26.317 32.478 25.1538 32.5543 23.4505C32.6319 21.7432 32.6499 21.1991 32.6499 16.854C32.6499 12.5089 32.6319 11.9635 32.5543 10.2575C32.4767 8.5541 32.2066 7.39032 31.8111 6.37388C31.4015 5.32184 30.8546 4.43007 29.9655 3.53957C29.0764 2.64908 28.1832 2.10252 27.1324 1.69407C26.114 1.29855 24.9507 1.02719 23.2486 0.9509C21.5425 0.873332 20.9971 0.854004 16.6518 0.854004C12.3066 0.854004 11.7607 0.872052 10.0538 0.9509Z" fill="white"/>
</svg>
