<svg width="32" height="32" viewBox="0 0 33 33" fill="none" xmlns="http://www.w3.org/2000/svg">
<path d="M7.84908 32.6828V11.0917H0.989299V32.6828H7.84979H7.84908ZM4.42062 8.14434C6.81227 8.14434 8.30123 6.4864 8.30123 4.41444C8.25646 2.29526 6.81227 0.683594 4.4661 0.683594C2.11833 0.683594 0.584961 2.29526 0.584961 4.41425C0.584961 6.48621 2.07338 8.14415 4.37567 8.14415H4.42008L4.42062 8.14434ZM11.6461 32.6828H18.5053V20.6267C18.5053 19.9822 18.5501 19.3361 18.7313 18.8758C19.2269 17.586 20.3556 16.2508 22.2511 16.2508C24.7326 16.2508 25.7259 18.2306 25.7259 21.1334V32.6828H32.585V20.3032C32.585 13.6716 29.2013 10.5855 24.6882 10.5855C20.9881 10.5855 19.363 12.7491 18.4602 14.2227H18.5058V11.0925H11.6464C11.7359 13.118 11.6459 32.6836 11.6459 32.6836L11.6461 32.6828Z" fill="white"/>
</svg>
