<svg width="120" height="40" viewBox="0 0 120 40" fill="none" xmlns="http://www.w3.org/2000/svg">
<g id="Asset 1 1" clip-path="url(#clip0_5_1391)">
<g id="Capa 1">
<g id="Group">
<g id="Group_2">
<path id="Vector" d="M0.414441 4.69816L5.05448 0.38721C5.94317 -0.439055 7.45567 0.147713 7.45567 1.32125V38.124C7.45567 38.8504 6.82333 39.4412 6.04572 39.4412H1.40996C0.632343 39.4412 0 38.8504 0 38.124V5.6322C0 5.28093 0.149541 4.94564 0.414441 4.69816Z" fill="#CFFF62"/>
<path id="Vector_2" d="M11.8864 29.4142V24.8957C11.8864 17.8385 15.8641 14.3099 23.824 14.3099C31.7838 14.3099 35.7616 17.8385 35.7616 24.8957V29.4142C35.7616 36.4714 31.7838 40 23.824 40C15.8641 40 11.8864 36.4714 11.8864 29.4142ZM28.3059 29.2705V25.0354C28.3059 21.4589 26.9942 19.9541 23.824 19.9541C20.6537 19.9541 19.342 21.4589 19.342 25.0354V29.2705C19.342 32.847 20.6537 34.3518 23.824 34.3518C26.9942 34.3518 28.3059 32.847 28.3059 29.2705Z" fill="#CFFF62"/>
<path id="Vector_3" d="M38.6285 31.905H45.7296C45.7296 34.0246 46.9387 34.9626 49.8099 34.9626C52.2794 34.9626 53.4886 34.2561 53.4886 32.7513C53.4886 31.0109 52.0786 30.2565 48.1478 29.8334C41.6492 29.1269 39.0814 27.0592 39.0814 22.397C39.0814 17.0802 42.9096 14.302 49.8099 14.302C56.7101 14.302 60.2863 17.0323 60.2863 22.1136H53.1852C53.1852 20.1856 52.1769 19.3394 49.7586 19.3394C47.5411 19.3394 46.4345 20.1377 46.4345 21.5508C46.4345 23.1514 47.7932 23.8579 51.6215 24.281C58.2696 24.9876 60.8374 27.2907 60.8374 32.0447C60.8374 37.4095 57.21 39.996 49.7543 39.996C42.2987 39.996 38.6242 37.3616 38.6242 31.901L38.6285 31.905Z" fill="#CFFF62"/>
<path id="Vector_4" d="M86.0201 23.6265V39.4373H79.7223L79.4702 36.3797C77.6586 38.7786 75.0352 40.0041 71.5616 40.0041C66.3747 40.0041 63.2514 37.2738 63.2514 32.3801C63.2514 27.2029 66.7293 24.333 73.7278 24.333H78.5644V23.5307C78.5644 20.992 77.5048 19.7666 74.8387 19.7666C72.1726 19.7666 71.2625 20.8483 71.16 22.5407H63.9564C64.358 17.0842 67.8872 14.306 75.1378 14.306C82.3884 14.306 86.0158 17.2239 86.0158 23.6225L86.0201 23.6265ZM78.5644 31.7654V28.9433H75.0865C71.7112 28.9433 70.6046 30.025 70.6046 31.8133C70.6046 33.6015 71.7112 34.5435 73.8261 34.5435C75.941 34.5435 77.5048 33.6015 78.5601 31.7694L78.5644 31.7654Z" fill="#CFFF62"/>
</g>
<g id="Group_3">
<path id="Vector_5" d="M102.162 24.1653C102.487 23.8619 102.67 23.4468 102.67 23.0157V17.9304C102.67 14.306 104.132 12.7533 107.605 12.7533C109.143 12.7533 110.28 13.0646 111.075 13.7272C111.75 14.29 112.788 14.2382 113.429 13.6394L115.958 11.2764C116.727 10.5579 116.625 9.34842 115.727 8.78161C113.711 7.51627 110.998 6.86963 107.61 6.86963C99.5001 6.86963 95.219 10.5419 95.219 17.647C95.219 17.647 95.2275 22.892 95.2446 26.708C95.2532 28.1569 97.1246 28.8714 98.2184 27.8496L102.162 24.1653Z" fill="#CFFF62"/>
<path id="Vector_6" d="M113.057 22.7044C112.732 23.0078 112.549 23.4229 112.549 23.854V28.9393C112.549 32.5637 111.087 34.1165 107.614 34.1165C106.076 34.1165 104.935 33.8051 104.144 33.1425C103.469 32.5797 102.431 32.6316 101.79 33.2303L99.2694 35.5854C98.5003 36.3039 98.6029 37.5093 99.5001 38.0761C101.517 39.3455 104.226 40.0001 107.61 40.0001C115.719 40.0001 120 36.2839 120 29.2227C120 29.2227 119.991 23.9778 119.974 20.1618C119.966 18.7128 118.094 17.9983 117.001 19.0202L113.057 22.7044Z" fill="#CFFF62"/>
</g>
</g>
</g>
</g>
<defs>
<clipPath id="clip0_5_1391">
<rect width="120" height="40" fill="white"/>
</clipPath>
</defs>
</svg>
