<svg width="119" height="110" viewBox="0 0 119 110" fill="none" xmlns="http://www.w3.org/2000/svg">
<g id="Group">
<path id="Vector" d="M56.2777 94.83C58.0177 107.99 28.5977 108.81 23.9677 90.31C23.6777 89.13 22.5477 88.33 21.3477 88.51C9.94766 90.21 2.35766 79.47 6.85766 69.28C7.25766 68.38 6.99766 67.34 6.28766 66.66C0.537659 61.16 0.567659 49.19 6.39766 43.96C7.19766 43.25 7.45766 42.09 6.96766 41.15C3.40766 34.28 9.41766 20.59 21.1477 20.95C22.5477 20.99 23.7177 19.87 23.6377 18.48C22.8977 5.58999 41.4477 -3.91001 55.3277 5.71999C55.9677 6.15999 56.3477 6.89999 56.3477 7.67999L56.2577 94.56C56.2577 94.65 56.2577 94.75 56.2777 94.84V94.83Z" fill="#CEFC6D" stroke="black" stroke-width="3.25" stroke-miterlimit="10"/>
<g id="Vector_2">
<path d="M23.6577 18.08C24.7577 24.55 30.4477 29.57 36.9577 30.73L23.6577 18.08Z" fill="#CEFC6D"/>
<path d="M23.6577 18.08C24.7577 24.55 30.4477 29.57 36.9577 30.73" stroke="black" stroke-width="3.25" stroke-miterlimit="10"/>
</g>
<g id="Vector_3">
<path d="M36.9576 13.22C35.4576 22.9 51.6876 26.95 56.0976 20.68L36.9576 13.22Z" fill="#CEFC6D"/>
<path d="M36.9576 13.22C35.4576 22.9 51.6876 26.95 56.0976 20.68" stroke="black" stroke-width="3.25" stroke-miterlimit="10"/>
</g>
<g id="Vector_4">
<path d="M28.8377 27.5C28.8177 30.9 24.2777 35.24 21.7077 36.26L28.8377 27.5Z" fill="#CEFC6D"/>
<path d="M28.8377 27.5C28.8177 30.9 24.2777 35.24 21.7077 36.26" stroke="black" stroke-width="3.25" stroke-miterlimit="10" stroke-linecap="round"/>
</g>
<g id="Vector_5">
<path d="M18.7877 47.29C22.7977 49.32 22.8777 55.14 27.2077 56.43C31.7477 57.78 34.2177 52.77 36.0377 49.28C38.8177 43.97 42.9377 41.82 48.9577 42.77C50.9177 43.07 54.3177 44.45 55.4477 45.03" fill="#CEFC6D"/>
<path d="M18.7877 47.29C22.7977 49.32 22.8777 55.14 27.2077 56.43C31.7477 57.78 34.2177 52.77 36.0377 49.28C38.8177 43.97 42.9377 41.82 48.9577 42.77C50.9177 43.07 54.3177 44.45 55.4477 45.03" stroke="black" stroke-width="3.25" stroke-miterlimit="10"/>
</g>
<g id="Vector_6">
<path d="M14.2477 46.96C17.3577 50.82 22.3477 45.12 19.1177 41.77L14.2477 46.96Z" fill="#CEFC6D"/>
<path d="M14.2477 46.96C17.3577 50.82 22.3477 45.12 19.1177 41.77" stroke="black" stroke-width="3.25" stroke-miterlimit="10"/>
</g>
<g id="Vector_7">
<path d="M55.4377 67.87C51.1777 63.62 44.5477 68.42 43.1177 73.02C41.4377 78.44 46.5577 82.85 44.7577 88.12C43.6677 91.32 41.1577 92.73 37.9277 92.2" fill="#CEFC6D"/>
<path d="M55.4377 67.87C51.1777 63.62 44.5477 68.42 43.1177 73.02C41.4377 78.44 46.5577 82.85 44.7577 88.12C43.6677 91.32 41.1577 92.73 37.9277 92.2" stroke="black" stroke-width="3.25" stroke-miterlimit="10" stroke-linecap="round"/>
</g>
<g id="Vector_8">
<path d="M23.6976 89.62C18.6876 76.53 43.4576 81.36 32.7376 61.56L23.6976 89.62Z" fill="#CEFC6D"/>
<path d="M23.6976 89.62C18.6876 76.53 43.4576 81.36 32.7376 61.56" stroke="black" stroke-width="3.25" stroke-miterlimit="10" stroke-linecap="round"/>
</g>
<g id="Vector_9">
<path d="M7.42767 68.37C9.20767 65.47 13.4477 65.25 16.5377 65.44C19.3377 65.62 22.4777 67.72 23.6577 68.04" fill="#CEFC6D"/>
<path d="M7.42767 68.37C9.20767 65.47 13.4477 65.25 16.5377 65.44C19.3377 65.62 22.4777 67.72 23.6577 68.04" stroke="black" stroke-width="3.25" stroke-miterlimit="10" stroke-linecap="round"/>
</g>
<path id="Vector_10" d="M115.878 47.22L111.468 47.08C110.388 47.04 109.468 46.28 109.228 45.22C108.868 43.56 108.408 41.93 107.858 40.34C107.478 39.24 107.938 38.04 108.958 37.48L113.018 35.26C114.168 34.63 114.588 33.18 113.958 32.03L109.368 23.67C108.738 22.52 107.288 22.1 106.138 22.73L101.438 25.31C100.478 25.83 99.2977 25.64 98.5577 24.84C97.5177 23.72 96.4177 22.64 95.2677 21.63C94.4077 20.88 94.1977 19.62 94.7777 18.63L97.5877 13.89C98.2577 12.76 97.8777 11.31 96.7577 10.64L88.5477 5.78C87.4177 5.11 85.9677 5.49 85.2977 6.61L82.2777 11.7C81.7177 12.65 80.5677 13.08 79.5177 12.75C78.1477 12.32 76.7477 11.95 75.3277 11.66C74.2277 11.43 73.4277 10.47 73.4277 9.34V3.37C73.4277 2.06 72.3677 1 71.0577 1H68.7477C67.4377 1 66.3777 2.06 66.3777 3.37V28.66C66.3777 29.19 66.8177 29.62 67.3477 29.62H67.3577C80.1277 29.62 90.4877 39.97 90.4877 52.75C90.4877 65.53 80.1377 75.88 67.3577 75.88H67.3477C66.8177 75.88 66.3777 76.3 66.3777 76.84V102.13C66.3777 103.44 67.4377 104.5 68.7477 104.5H71.0577C72.3677 104.5 73.4277 103.44 73.4277 102.13V100.08C73.4277 98.96 74.2176 97.99 75.3176 97.76C76.6976 97.47 78.0477 97.12 79.3777 96.71C80.4677 96.37 81.6377 96.85 82.1777 97.85L83.1677 99.71C83.7877 100.87 85.2177 101.3 86.3777 100.69L94.7977 96.21C95.9577 95.59 96.3977 94.16 95.7777 93L94.6077 90.79C94.0877 89.82 94.3177 88.61 95.1477 87.89C96.4477 86.76 97.6877 85.56 98.8477 84.29C99.6277 83.43 100.898 83.26 101.878 83.88L104.118 85.3C105.228 86.01 106.688 85.68 107.398 84.57L112.518 76.53C113.228 75.42 112.898 73.96 111.788 73.25L108.978 71.46C108.048 70.87 107.658 69.73 108.008 68.69C108.598 66.94 109.088 65.14 109.448 63.29C109.678 62.15 110.688 61.33 111.858 61.37L115.428 61.49C116.738 61.53 117.838 60.51 117.878 59.2L118.188 49.67C118.228 48.36 117.208 47.26 115.898 47.22L115.878 47.2V47.22Z" fill="#CFCECE"/>
<path id="Vector_11" d="M38.6577 36.9C41.154 36.9 43.1777 34.8763 43.1777 32.38C43.1777 29.8837 41.154 27.86 38.6577 27.86C36.1613 27.86 34.1377 29.8837 34.1377 32.38C34.1377 34.8763 36.1613 36.9 38.6577 36.9Z" fill="#F0F0F0" stroke="black" stroke-width="3.25" stroke-miterlimit="10"/>
<path id="Vector_12" d="M37.4277 14.5C39.924 14.5 41.9477 12.4763 41.9477 9.97999C41.9477 7.48366 39.924 5.45999 37.4277 5.45999C34.9313 5.45999 32.9077 7.48366 32.9077 9.97999C32.9077 12.4763 34.9313 14.5 37.4277 14.5Z" fill="#F0F0F0" stroke="black" stroke-width="3.25" stroke-miterlimit="10"/>
<path id="Vector_13" d="M16.0577 48.61C18.554 48.61 20.5777 46.5863 20.5777 44.09C20.5777 41.5937 18.554 39.57 16.0577 39.57C13.5613 39.57 11.5377 41.5937 11.5377 44.09C11.5377 46.5863 13.5613 48.61 16.0577 48.61Z" fill="#F0F0F0" stroke="black" stroke-width="3.25" stroke-miterlimit="10"/>
<path id="Vector_14" d="M34.0476 69.44C36.544 69.44 38.5676 67.4163 38.5676 64.92C38.5676 62.4237 36.544 60.4 34.0476 60.4C31.5513 60.4 29.5276 62.4237 29.5276 64.92C29.5276 67.4163 31.5513 69.44 34.0476 69.44Z" fill="#F0F0F0" stroke="black" stroke-width="3.25" stroke-miterlimit="10"/>
</g>
</svg>
