<svg width="104" height="104" viewBox="0 0 104 104" fill="none" xmlns="http://www.w3.org/2000/svg">
<rect width="104" height="104" rx="30" fill="#222228"/>
<path d="M80 79.6484C80 80.0077 79.8778 80.3584 79.6694 80.6065C79.4539 80.8631 79.1664 81 78.8646 81H24.1354C23.8336 81 23.5461 80.8546 23.3306 80.6065C23.115 80.3498 23 80.0077 23 79.6484V25.3602C23 25.0009 23.1222 24.6502 23.3306 24.4021C23.5461 24.1454 23.8336 24 24.1354 24C24.4372 24 24.7247 24.1454 24.9402 24.4021C25.1558 24.6587 25.2708 25.0009 25.2708 25.3602V65.516L41.5688 46.1139C41.6766 45.9856 41.7988 45.8915 41.9425 45.8231C42.079 45.7546 42.23 45.7204 42.3809 45.7204C42.5318 45.7204 42.6827 45.7546 42.8192 45.8231C42.9557 45.8915 43.0851 45.9941 43.1857 46.1139L51.5 56.0117L69.2712 34.8559H60.6263C60.3245 34.8559 60.0371 34.7105 59.8215 34.4624C59.6059 34.2058 59.4909 33.8636 59.4909 33.5043C59.4909 33.145 59.6131 32.7942 59.8215 32.5462C60.0371 32.2895 60.3245 32.1441 60.6263 32.1441H72.0306C72.3325 32.1441 72.6199 32.2895 72.8355 32.5462C73.0511 32.8028 73.166 33.145 73.166 33.5043V47.0806C73.166 47.4399 73.0439 47.7906 72.8355 48.0387C72.6199 48.2954 72.3325 48.4322 72.0306 48.4322C71.7288 48.4322 71.4414 48.2868 71.2258 48.0387C71.0102 47.7821 70.8952 47.4399 70.8952 47.0806V36.7893L52.3192 58.9032C52.2114 59.0315 52.0893 59.1256 51.9527 59.1941C51.8162 59.2625 51.6653 59.2967 51.5144 59.2967C51.3635 59.2967 51.2126 59.2625 51.076 59.1941C50.9395 59.1256 50.8101 59.023 50.7023 58.9032L42.388 49.0054L25.2708 69.357V78.2967H78.8574C79.1592 78.2967 79.4467 78.4421 79.6623 78.6988C79.8778 78.9554 79.9928 79.2976 79.9928 79.6569L80 79.6484Z" fill="#CFFF55"/>
</svg>
