<svg width="104" height="104" viewBox="0 0 104 104" fill="none" xmlns="http://www.w3.org/2000/svg">
<rect width="104" height="104" rx="30" fill="#222228"/>
<g clip-path="url(#clip0_201_29)">
<path d="M54.6951 25.0994C54.6951 25.3868 54.5801 25.6671 54.3717 25.8754C54.1634 26.0838 53.8903 26.1988 53.5957 26.1988H44.8298C44.5424 26.1988 44.2622 26.0838 44.0538 25.8754C43.8455 25.6671 43.7305 25.394 43.7305 25.0994C43.7305 24.8048 43.8455 24.5318 44.0538 24.3234C44.2622 24.1151 44.5352 24.0001 44.8298 24.0001H53.5957C53.8832 24.0001 54.1634 24.1151 54.3717 24.3234C54.5801 24.5318 54.6951 24.8048 54.6951 25.0994ZM53.5957 72.2342H44.8298C44.5424 72.2342 44.2622 72.3492 44.0538 72.5575C43.8455 72.7587 43.7305 73.0389 43.7305 73.3335C43.7305 73.6281 43.8455 73.9011 44.0538 74.1095C44.2622 74.3107 44.5352 74.4329 44.8298 74.4329H53.5957C53.8832 74.4329 54.1634 74.3179 54.3717 74.1095C54.5801 73.9011 54.6951 73.6281 54.6951 73.3335C54.6951 73.0389 54.5801 72.7659 54.3717 72.5575C54.1634 72.3492 53.8903 72.2342 53.5957 72.2342ZM72.2341 27.2909V33.8654C72.2341 34.1528 72.3491 34.433 72.5574 34.6414C72.7658 34.8497 73.0388 34.9647 73.3334 34.9647C73.628 34.9647 73.9011 34.8497 74.1094 34.6414C74.3178 34.433 74.4328 34.1599 74.4328 33.8654V27.2909C74.4328 26.4215 74.0879 25.5808 73.4699 24.9629C72.852 24.345 72.0185 24.0001 71.142 24.0001H64.5675C64.2801 24.0001 63.9999 24.1151 63.7915 24.3234C63.5831 24.5318 63.4682 24.8048 63.4682 25.0994C63.4682 25.394 63.5831 25.6671 63.7915 25.8754C63.9999 26.0838 64.2729 26.1988 64.5675 26.1988H71.142C71.4294 26.1988 71.7096 26.3137 71.918 26.5221C72.1263 26.7305 72.2413 27.0035 72.2413 27.2981L72.2341 27.2909ZM73.3334 43.7306C73.046 43.7306 72.7658 43.8456 72.5574 44.0539C72.3491 44.2623 72.2341 44.5353 72.2341 44.8299V53.5958C72.2341 53.8904 72.3491 54.1635 72.5574 54.3718C72.7658 54.573 73.0388 54.6952 73.3334 54.6952C73.628 54.6952 73.9011 54.5802 74.1094 54.3718C74.3178 54.1635 74.4328 53.8904 74.4328 53.5958V44.8299C74.4328 44.5353 74.3178 44.2623 74.1094 44.0539C73.9011 43.8456 73.628 43.7306 73.3334 43.7306ZM25.0993 54.6952C25.3868 54.6952 25.667 54.5802 25.8753 54.3718C26.0837 54.1635 26.1987 53.8904 26.1987 53.5958V44.8299C26.1987 44.5353 26.0837 44.2623 25.8753 44.0539C25.667 43.8456 25.3939 43.7306 25.0993 43.7306C24.8048 43.7306 24.5317 43.8456 24.3233 44.0539C24.115 44.2623 24 44.5353 24 44.8299V53.5958C24 53.8904 24.115 54.1635 24.3233 54.3718C24.5317 54.573 24.8048 54.6952 25.0993 54.6952ZM33.8653 72.2342H27.2908C27.0034 72.2342 26.7232 72.1192 26.5148 71.9109C26.3065 71.7025 26.1915 71.4294 26.1915 71.1349V64.5604C26.1915 64.2658 26.0765 63.9928 25.8682 63.7844C25.6598 63.576 25.3868 63.4611 25.0922 63.4611C24.7976 63.4611 24.5245 63.576 24.3162 63.7844C24.1078 63.9856 23.9928 64.2658 23.9928 64.5604V71.1349C23.9928 72.0043 24.3377 72.8449 24.9556 73.4629C25.5736 74.0808 26.407 74.4257 27.2836 74.4257H33.8581C34.1455 74.4257 34.4257 74.3107 34.6341 74.1023C34.8424 73.894 34.9574 73.6209 34.9574 73.3263C34.9574 73.0317 34.8424 72.7587 34.6341 72.5503C34.4257 72.342 34.1527 72.227 33.8581 72.227L33.8653 72.2342ZM33.8653 24.0001H27.2908C26.4214 24.0001 25.5808 24.345 24.9628 24.9629C24.3449 25.5808 24 26.4143 24 27.2909V33.8654C24 34.1528 24.115 34.433 24.3233 34.6414C24.5317 34.8497 24.8048 34.9647 25.0993 34.9647C25.3939 34.9647 25.667 34.8497 25.8753 34.6414C26.0837 34.433 26.1987 34.1599 26.1987 33.8654V27.2909C26.1987 27.0035 26.3136 26.7233 26.522 26.5149C26.7304 26.3065 27.0034 26.1916 27.298 26.1916H33.8724C34.1599 26.1916 34.4401 26.0766 34.6484 25.8683C34.8568 25.6599 34.9718 25.3868 34.9718 25.0923C34.9718 24.7977 34.8568 24.5246 34.6484 24.3163C34.4401 24.1079 34.167 23.9929 33.8724 23.9929L33.8653 24.0001ZM79.9007 72.2342H74.4184V66.7519C74.4184 66.4573 74.3034 66.1843 74.0951 65.9759C73.8867 65.7675 73.6137 65.6526 73.3191 65.6526C73.0245 65.6526 72.7514 65.7675 72.5431 65.9759C72.3347 66.1771 72.2197 66.4573 72.2197 66.7519V72.2342H66.7374C66.45 72.2342 66.1698 72.3492 65.9614 72.5575C65.7531 72.7587 65.6381 73.0389 65.6381 73.3335C65.6381 73.6281 65.7531 73.9011 65.9614 74.1095C66.1698 74.3107 66.4428 74.4329 66.7374 74.4329H72.2197V79.9151C72.2197 80.2097 72.3347 80.4828 72.5431 80.6911C72.7514 80.8923 73.0245 81.0145 73.3191 81.0145C73.6137 81.0145 73.8867 80.8995 74.0951 80.6911C74.3034 80.4828 74.4184 80.2097 74.4184 79.9151V74.4329H79.9007C80.1881 74.4329 80.4683 74.3179 80.6767 74.1095C80.885 73.9011 81 73.6281 81 73.3335C81 73.0389 80.885 72.7659 80.6767 72.5575C80.4683 72.3492 80.1953 72.2342 79.9007 72.2342Z" fill="#CFFF55"/>
</g>
<defs>
<clipPath id="clip0_201_29">
<rect width="57" height="57" fill="white" transform="translate(24 24)"/>
</clipPath>
</defs>
</svg>
