<svg width="104" height="104" viewBox="0 0 104 104" fill="none" xmlns="http://www.w3.org/2000/svg">
<rect width="104" height="104" rx="30" fill="#222228"/>
<g clip-path="url(#clip0_199_27)">
<path d="M51.5034 23C45.863 23 40.3592 24.6741 35.6673 27.7997C30.9825 30.9324 27.3253 35.3801 25.1697 40.5893C23.0142 45.7986 22.4465 51.5323 23.5459 57.0577C24.6452 62.5831 27.3612 67.6631 31.349 71.6508C35.3368 75.6386 40.4095 78.3546 45.9421 79.4539C51.4675 80.5533 57.2012 79.9928 62.4105 77.8301C67.6197 75.6745 72.0674 72.0173 75.2001 67.3325C78.3328 62.6478 79.9998 57.1368 79.9998 51.4964C79.9926 43.9376 76.9892 36.6949 71.6434 31.3564C66.2977 26.0106 59.055 23.0072 51.5034 23ZM51.5034 25.2777C56.7989 25.2777 61.965 26.88 66.3264 29.8834V36.1129C66.3264 36.386 66.2258 36.6518 66.039 36.8602L59.7232 44.2035C59.5436 44.4118 59.2921 44.5483 59.0119 44.5915L50.052 45.8129C49.7646 45.856 49.47 45.777 49.2329 45.6046L49.1898 45.5758L43.5638 41.8826C43.1901 41.6168 42.7662 41.43 42.3207 41.3294C41.8753 41.2288 41.4154 41.2216 40.9627 41.3078C40.5101 41.3941 40.0862 41.5593 39.7053 41.8108C39.3245 42.0623 38.994 42.3856 38.7425 42.7664L32.7573 51.6904C32.3836 52.2509 32.1896 52.9047 32.1896 53.5729L32.1322 63.898C32.1322 64.0848 32.0819 64.2716 31.9956 64.4369C31.9094 64.6022 31.7801 64.7459 31.622 64.8465L29.7251 66.0895C27.0882 62.1448 25.5649 57.5535 25.3278 52.8113C25.0907 48.0691 26.1469 43.3484 28.3887 39.1595C30.6233 34.9705 33.9572 31.4713 38.0312 29.0284C42.1052 26.5854 46.7612 25.2921 51.5106 25.2921L51.5034 25.2777ZM31.0688 67.9145L32.8651 66.7362C33.3393 66.4272 33.7273 66.0033 33.9931 65.5075C34.259 65.0117 34.4027 64.4513 34.4027 63.8908L34.4602 53.5657C34.4602 53.343 34.5248 53.1274 34.6542 52.9406L40.625 44.0166C40.7113 43.8873 40.819 43.7795 40.9484 43.7005C41.0777 43.6143 41.2214 43.5568 41.3723 43.5352C41.5232 43.5065 41.6813 43.5137 41.825 43.5496C41.9759 43.5855 42.1124 43.6502 42.2417 43.7364L42.2848 43.7652L47.9108 47.444C48.615 47.9469 49.4915 48.1625 50.3538 48.0475L59.3209 46.8332C60.1472 46.7183 60.9088 46.3087 61.4549 45.6764L67.7706 38.3404C68.3023 37.7224 68.5969 36.9321 68.5969 36.1129V31.6438C72.7356 35.2004 75.66 39.957 76.9605 45.2525C78.261 50.548 77.8802 56.1237 75.8611 61.1892L69.998 55.8291C69.5166 55.3908 68.9203 55.0962 68.2808 54.9884C67.6413 54.8734 66.9803 54.9525 66.3767 55.1968L57.697 58.8037C57.1509 59.0337 56.6767 59.3929 56.3103 59.86C55.951 60.327 55.7139 60.8802 55.6205 61.4622L54.9451 66.0751C54.8229 66.9086 55.0169 67.7565 55.484 68.4534C55.951 69.1504 56.6552 69.6605 57.4743 69.8689L63.5889 71.4712C63.7829 71.5215 63.9625 71.6149 64.1062 71.7586L65.8019 73.4687C60.3555 77.0253 53.7811 78.4264 47.3576 77.399C40.934 76.3715 35.1284 72.9945 31.0616 67.9145H31.0688ZM67.67 72.1179L65.7157 70.1563C65.2846 69.7252 64.7529 69.4162 64.1637 69.2653L58.0563 67.6631C57.7832 67.5984 57.5461 67.4259 57.3881 67.196C57.23 66.9661 57.1653 66.6787 57.2012 66.3985L57.8838 61.7784C57.9126 61.5844 57.9916 61.3976 58.1138 61.2467C58.2359 61.0886 58.394 60.9737 58.5736 60.8946L67.2533 57.2877C67.4545 57.2014 67.6772 57.1799 67.8856 57.2158C68.1012 57.2517 68.2952 57.3523 68.4604 57.496L74.8696 63.3591C73.138 66.7649 70.6806 69.7539 67.67 72.1179Z" fill="#CFFF55"/>
</g>
<defs>
<clipPath id="clip0_199_27">
<rect width="57" height="57" fill="white" transform="translate(23 23)"/>
</clipPath>
</defs>
</svg>
