<svg width="104" height="104" viewBox="0 0 104 104" fill="none" xmlns="http://www.w3.org/2000/svg">
<rect width="104" height="104" rx="30" fill="#222228"/>
<path d="M63.901 40.1101C63.3549 36.4308 61.8026 32.9815 59.4096 30.1431C57.0166 27.3046 53.8834 25.1775 50.3549 24.0133C46.8193 22.8492 43.0393 22.6839 39.4246 23.5391C35.8099 24.4014 32.5042 26.241 29.8741 28.8711C27.2439 31.494 25.4042 34.8068 24.5418 38.4214C23.6867 42.036 23.8448 45.8158 25.0089 49.3442C26.1731 52.8725 28.2931 56.0057 31.1388 58.3986C33.9846 60.7916 37.434 62.3438 41.1062 62.8899C41.6523 66.5691 43.2046 70.0185 45.5976 72.8569C47.9906 75.6954 51.1238 77.8225 54.6523 78.9867C58.1807 80.1508 61.9607 80.3161 65.5754 79.4609C69.1901 78.5986 72.4958 76.759 75.126 74.1289C77.7561 71.506 79.5958 68.1932 80.4582 64.5786C81.3133 60.964 81.1552 57.1842 79.9911 53.6558C78.8269 50.1275 76.7069 46.9943 73.8612 44.6014C71.0154 42.2084 67.566 40.6562 63.8938 40.1101H63.901ZM26.1156 43.0564C26.1156 38.5723 27.8044 34.2535 30.8298 30.9551C33.8624 27.6495 38.0161 25.6015 42.4788 25.2062C46.9414 24.811 51.3969 26.1045 54.9541 28.8208C58.5185 31.5443 60.9331 35.4967 61.7236 39.9089C61.4577 39.9089 61.199 39.8873 60.9475 39.8873C55.6296 39.8873 50.5346 42.0072 46.769 45.7655C43.0105 49.5238 40.8906 54.6259 40.8906 59.9436C40.8906 60.2095 40.8906 60.4682 40.9122 60.7197C36.7657 59.9795 33.0144 57.8022 30.3124 54.5684C27.6104 51.3419 26.1228 47.2674 26.1156 43.0564ZM62.011 43.0564C62.011 45.8949 61.3355 48.6831 60.042 51.2054L52.7982 43.9618C55.3206 42.6683 58.1161 41.9929 60.9475 41.9929C61.2924 41.9929 61.6301 41.9929 61.9679 42.0216C61.9967 42.3593 61.9967 42.7043 61.9967 43.042L62.011 43.0564ZM43.0105 59.9436C43.0105 57.1051 43.6861 54.3169 44.9796 51.7946L52.2233 59.0382C49.701 60.3317 46.9055 61.0071 44.0741 61.0071C43.7292 61.0071 43.3914 60.9928 43.0537 60.9784C43.0321 60.6407 43.0249 60.2957 43.0249 59.958L43.0105 59.9436ZM54.0918 57.9243L46.0791 49.9119C47.3726 48.0004 49.0183 46.362 50.9226 45.0685L58.9353 53.0809C57.6418 54.9924 55.9961 56.6308 54.0918 57.9243ZM60.9546 77.8872C56.7435 77.8872 52.6689 76.3997 49.4422 73.6905C46.2156 70.9886 44.0382 67.2375 43.2908 63.0911C43.5567 63.0911 43.8154 63.1127 44.0669 63.1127C49.3848 63.1127 54.4798 60.9928 58.2454 57.2345C62.0038 53.4762 64.1238 48.3741 64.1238 43.0564C64.1238 42.7905 64.1238 42.5318 64.1022 42.2803C68.5146 43.0708 72.467 45.4853 75.1906 49.0496C77.9142 52.6138 79.2006 57.062 78.8053 61.5245C78.4101 65.9871 76.362 70.1406 73.0563 73.1731C69.7506 76.1985 65.4317 77.88 60.9546 77.8872Z" fill="#CFFF55"/>
</svg>
