<svg width="15" height="15" viewBox="0 0 15 15" fill="none" xmlns="http://www.w3.org/2000/svg">
<path d="M12.5014 2.37004C11.8564 1.72179 11.0882 1.20781 10.2415 0.858084C9.39476 0.508353 8.48653 0.329872 7.56977 0.33305C3.72856 0.33305 0.597907 3.44804 0.597907 7.27003C0.597907 8.49502 0.921526 9.68502 1.52655 10.735L0.541626 14.333L4.23509 13.367C5.25519 13.92 6.40193 14.214 7.56977 14.214C11.411 14.214 14.5416 11.099 14.5416 7.27703C14.5416 5.42203 13.817 3.67904 12.5014 2.37004ZM7.56977 13.038C6.52856 13.038 5.50846 12.758 4.61499 12.233L4.40394 12.107L2.20896 12.681L2.79288 10.553L2.65218 10.336C2.07371 9.4169 1.76655 8.3545 1.76575 7.27003C1.76575 4.09204 4.36876 1.50205 7.56273 1.50205C9.11047 1.50205 10.5668 2.10404 11.6572 3.19604C12.1971 3.73081 12.625 4.3669 12.9161 5.06743C13.2071 5.76796 13.3555 6.51901 13.3527 7.27703C13.3668 10.455 10.7637 13.038 7.56977 13.038ZM10.7497 8.72602C10.5738 8.64202 9.71549 8.22203 9.56072 8.15903C9.39891 8.10303 9.28635 8.07503 9.16675 8.24303C9.04715 8.41803 8.7165 8.81002 8.61801 8.92202C8.51951 9.04102 8.41399 9.05502 8.23811 8.96402C8.06223 8.88002 7.49941 8.69102 6.83811 8.10303C6.3175 7.64103 5.97278 7.07403 5.86725 6.89903C5.76876 6.72403 5.85318 6.63303 5.94464 6.54203C6.02203 6.46503 6.12052 6.33903 6.20494 6.24103C6.28936 6.14303 6.32454 6.06603 6.38082 5.95403C6.4371 5.83503 6.40896 5.73703 6.36675 5.65303C6.32454 5.56903 5.97278 4.71504 5.83208 4.36504C5.69137 4.02904 5.54364 4.07104 5.43811 4.06404H5.10042C4.98082 4.06404 4.79791 4.10604 4.6361 4.28104C4.48132 4.45604 4.03107 4.87604 4.03107 5.73003C4.03107 6.58403 4.6572 7.41003 4.74163 7.52203C4.82605 7.64103 5.97278 9.39102 7.7175 10.14C8.13258 10.322 8.4562 10.427 8.70946 10.504C9.12454 10.637 9.50444 10.616 9.80695 10.574C10.1446 10.525 10.8411 10.154 10.9818 9.74802C11.1296 9.34202 11.1296 8.99902 11.0803 8.92202C11.0311 8.84502 10.9255 8.81002 10.7497 8.72602Z" fill="#CFFF62"/>
</svg>
